<?xml version="1.0" encoding="utf-8"?>
<!-- Generator: Adobe Illustrator 26.5.0, SVG Export Plug-In . SVG Version: 6.00 Build 0)  -->
<svg version="1.1" id="Layer_1" xmlns="http://www.w3.org/2000/svg" xmlns:xlink="http://www.w3.org/1999/xlink" x="0px" y="0px"
	 viewBox="0 0 480.67 364.44" style="enable-background:new 0 0 480.67 364.44;" xml:space="preserve">
<style type="text/css">
	.st0{stroke:#000000;stroke-width:2;stroke-miterlimit:10;}
	.st1{stroke:#000000;stroke-width:5;stroke-miterlimit:10;}
	.st2{stroke:#000000;stroke-width:4;stroke-miterlimit:10;}
</style>
<path class="st0" d="M362.38,350.68c-17.14-1.2-33.65-5.69-49.54-13.47c-15.89-7.79-28.54-19.46-40.85-33.3
	c-8.84-9.86-14.44-21.78-21.52-35.65c-1.53-2.99-0.78-4.51,1.52-5.3c0.41-0.14,2.69-0.21,5.43-0.46c2.81-0.25,3.95-0.51,5.97-1.21
	c5.14-1.77,9.9-4.67,14.28-8.71c4.38-4.03,7.68-8.55,9.91-13.54c4.46-10.58,4.02-21.1-1.32-31.59c-2.75-5.39-6.49-9.91-11.21-13.57
	c-4.72-3.65-13.84-5.81-19.72-6.08c-15-0.7-25.28,4.45-28.44,7.08l31.54,147.86c0.06,1.98-1.41,3.48-4.38,4.5
	c-3.11,1.07-5.07,0.81-5.89-0.79c-2.35-11.16-7-33.53-13.95-67.11c-6.95-33.58-13.05-62.04-16.45-80.24
	c-1.91,1.25-4.12,4.28-4.84,5.06c-0.72,0.78-3.36,3.6-4.81,3.61c-1.84,0.01-2.27-0.16-3.02-1.56c-0.68-1.34-0.76-3.77,3.02-7.81
	c5.73-6.13,7.6-7.03,11.72-9.19c6.04-3.06,10.55-4.8,14.26-5.89c8.28-2.42,21.46-4.93,35.89-0.29c10.84,3.48,19.16,10.92,24.96,22.3
	c4.43,8.69,6.07,17.28,4.91,25.77c-1.15,8.5-5.2,16.23-12.13,23.2c-6.94,6.97-16.42,12.53-28.45,16.67
	c9.52,18.67,22.14,34.24,37.88,46.72c15.74,12.47,33.51,20.52,53.32,24.14c19.8,3.62,40.18,1.82,61.14-5.4
	c9.46-3.26,17.42-7.21,23.89-11.84c6.46-4.63,11.73-9.41,15.81-14.34c4.08-4.93,8.98-11.61,14.7-20.03c0.18-0.89,0.75-1.49,1.7-1.82
	c0.94-0.33,1.98-0.24,3.11,0.25c1.12,0.49,1.92,1.19,2.37,2.09c0.51,1,0.47,2.01-0.12,3.03c-6.73,12.06-14.7,22.14-23.92,30.25
	c-9.22,8.11-21.53,14.82-36.94,20.13C396.13,349.7,379.52,351.88,362.38,350.68z"/>
<g>
	<path class="st1" d="M136.21,353.7c-6.38-4.61-11.26-10.85-14.62-18.7c-3.37-7.85-4.91-16.52-4.62-26.01
		c0.19-6.23,1.54-12.02,4.06-17.35c2.52-5.34,5.28-9.49,8.29-12.45c4.07-4.1,9.1-7.27,15.09-9.5c-6.75-6.48-10-13.93-9.75-22.33
		c0.08-2.62,0.84-5.26,2.3-7.92c1.45-2.66,3.36-4.85,5.73-6.58c4.48-3.55,10.32-5.19,17.52-4.93c6.85,0.25,12.64,1.77,17.36,4.56
		c4.72,2.79,8,6.39,9.84,10.8c0.03,1.72-0.33,2.93-1.07,3.62c-0.75,0.7-1.6,1.03-2.54,0.99c-0.94-0.03-1.69-0.78-2.25-2.25
		c-1.02-3.29-3.36-5.98-7.03-8.05c-3.67-2.08-8.08-3.21-13.22-3.39c-5.49-0.2-10.33,1.01-14.52,3.62c-4.2,2.61-6.36,6.22-6.5,10.82
		c-0.19,6.23,2.06,11.43,6.74,15.57c1.67,1.6,3.73,2.89,6.19,3.89c3.6,0.13,6.37,0.73,8.31,1.79c1.94,1.07,2.89,2.46,2.83,4.17
		c-0.03,0.99-0.44,1.82-1.23,2.46c-0.79,0.65-1.75,0.96-2.86,0.91c-5.2-1.27-8.38-2.24-9.56-2.92c-4.82,0.37-9.31,2.13-13.48,5.28
		c-4.17,3.15-7.53,7.26-10.09,12.32c-2.56,5.06-3.92,10.53-4.1,16.4c-0.25,8.4,1.06,16.07,3.94,23c2.88,6.93,7,12.44,12.37,16.52
		c5.37,4.08,11.48,6.25,18.34,6.49c8.14,0.29,15.27-1.26,21.38-4.66c6.11-3.4,10.81-7.8,14.11-13.2c3.29-5.4,5.02-10.76,5.18-16.09
		c0.17-5.78-0.73-10.52-2.72-14.21c-1.99-3.69-5.31-6.84-9.95-9.45c-5.13,2.17-9.11,5.33-11.93,9.47
		c-2.83,4.15-4.31,8.57-4.45,13.27c-0.04,1.27,0.08,2.33,0.35,3.2c0.27,0.87,0.69,1.9,1.26,3.1c0.64,1.47,0.96,2.48,0.94,3.02
		c-0.03,0.91-0.42,1.73-1.17,2.47c-0.75,0.74-1.56,1.1-2.41,1.07c-1.63-0.06-2.91-1.6-3.85-4.62c-0.78-2.56-1.13-5.06-1.06-7.5
		c0.16-5.15,1.87-10.18,5.15-15.08c3.28-4.9,7.46-9.07,12.54-12.51c1.49-1.12,5.92-2.95,13.29-5.49l4.42-1.6
		c7.38-3.08,11.17-7.78,11.37-14.11l-0.83-11.02c0.28-0.8,0.8-1.53,1.55-2.18c0.75-0.65,1.42-0.97,2.02-0.94
		c2.31,0.08,3.32,5.19,3.01,15.3c-0.05,1.63-0.58,3.53-1.59,5.71c-1.01,2.18-2.45,4.28-4.31,6.29c-4.51,4.45-10.44,7.68-17.79,9.67
		c5.13,3.26,8.48,6.97,10.02,11.14c1.55,4.17,2.23,9.24,2.05,15.2c-0.21,6.96-2.6,13.63-7.17,20.02
		c-4.57,6.4-10.51,11.45-17.83,15.16c-7.23,3.63-14.23,5.32-21,5.08C149.94,360.78,142.59,358.32,136.21,353.7z"/>
</g>
<path class="st0" d="M342.51,322.6c-4.1-1.02-7.9-3.23-11.41-6.61c-4.55-4.43-8.43-10.82-11.64-19.14
	c-3.21-8.32-5.26-17.41-6.13-27.26c-0.87-9.85-0.22-19.12,1.95-27.81c4.35-17.38,12.81-24.5,25.37-21.36
	c8.74,2.19,15.71,7.69,20.9,16.51c5.5,8.77,9,18.98,10.51,30.63c1.51,11.66,0.85,23.14-1.98,34.43c-1.77,7.08-5.03,12.72-9.79,16.94
	C355.54,323.16,349.61,324.38,342.51,322.6z M342.97,313.81c1.78,0.44,3.73,0.47,5.86,0.08c6.13-1.89,10.26-7.06,12.37-15.51
	c3.11-12.41,2.69-26.11-1.26-41.08c-2.44-9.98-6.35-17.55-11.73-22.72c-2.64-2.77-5.4-4.52-8.27-5.23c-2.59-0.65-4.6-0.76-6.02-0.32
	c-1.42,0.44-2.77,1.48-4.05,3.14c-1.39,1.5-2.99,5.85-4.79,13.05c-1.74,6.95-2.01,15.86-0.81,26.71
	c1.07,10.82,3.39,20.24,6.97,28.26C334.83,308.22,338.74,312.76,342.97,313.81z"/>
<path class="st0" d="M415.16,304.16c-5.35-2.69-9.87-7.25-13.56-13.7c-2.73-4.77-5.12-9.64-7.14-14.6
	c-2.03-4.96-4.24-10.95-6.65-17.98l-1.75-4.75c-4.14-11.49-7.26-20.47-9.34-26.95c-0.58-1.58-1.07-3-1.46-4.25
	c-0.39-1.25-0.78-2.35-1.17-3.31c-1.89-5.85-3.38-10.61-4.32-14.34c-1.51-6.03-1.77-7.14-1.77-7.14s-1.3-4.26-2.49-9.97
	c-0.81-4.55-4.25-13.04-0.72-17.92c3.18-1.82,4.85,2.68,6.25,5.12l1.62,4.92c0,0,2.98,9.15,4.61,14.72
	c5.94,20.37,10.42,35.92,13.75,46.54c0.27-9.15,1.31-16.56,3.09-22.23c1.78-5.67,4.94-9.79,9.46-12.38
	c4.52-2.59,9.06-3.09,13.62-1.49c4.56,1.59,8.02,4.44,10.37,8.55c4.9,8.55,9.04,19.12,12.43,31.7c3.39,12.59,4.74,23.65,4.04,33.19
	c-0.83,12.72-5.1,21.28-12.79,25.68C425.87,306.65,420.51,306.85,415.16,304.16z M433.86,277.53c0.97-11.91-1.21-25.34-6.52-40.29
	c-1.81-4.57-3.79-8.74-5.95-12.52c-2.61-4.55-5.02-7.71-7.24-9.46c-2.22-1.75-4.55-1.93-7-0.53c-2.57,1.47-4.71,5.31-6.42,11.53
	c-1.71,6.22-2.49,13.15-2.33,20.8c0.16,7.65,1.4,14.21,3.71,19.66c3.4,7.93,6.35,14.06,8.83,18.39c5.41,9.44,10.55,12.76,15.44,9.96
	C430.79,292.56,433.28,286.71,433.86,277.53z"/>
<path class="st1" d="M170.07,199.33c-1.09-0.32-2.77-1.36-5.04-3.14l-4.88-3.82c-6.12-4.79-22.26-18.36-48.42-40.71
	c-5.99-4.96-11.84-9.87-17.54-14.73c-5.7-4.86-10.41-8.82-14.12-11.86c4.46,9.26,10.27,22.62,17.44,40.1
	c7.17,17.48,11.49,28.07,12.98,31.78c3.41,8.57,6.98,17.33,10.7,26.28c0.94,2.07,0.92,3.73-0.06,4.98
	c-0.91,1.17-2.09,1.58-3.54,1.25l-22.34-10.24c-36.69-16.51-59.61-26.94-68.77-31.29c7.27,8.78,14.1,17.3,20.48,25.58
	c6.38,8.28,14.23,18.61,23.55,31c3.55,4.66,7.85,10.3,12.9,16.93c5.05,6.63,11.04,14.4,17.96,23.31c0.8,2.1,0.64,3.85-0.47,5.27
	c-0.98,1.25-2.29,1.36-3.93,0.34c-6-6.97-13.21-15.83-21.62-26.58c-8.42-10.74-16.55-21.26-24.4-31.56
	c-7.85-10.3-13.11-17.16-15.78-20.6l-23.41-30.6c-0.56-0.84-0.83-1.82-0.81-2.94c0.02-1.12,0.3-2.01,0.82-2.68
	c0.84-1.08,2.07-1.32,3.68-0.74c6.7,2.97,23.47,10.59,50.3,22.88c17.28,8.29,31.99,15.05,44.13,20.25
	c-2.99-8.64-7.3-19.79-12.94-33.46c-5.64-13.67-13.38-32.2-23.23-55.6c-2.73-6.16-5.23-12.01-7.49-17.53
	c-1.03-2.42-1-4.33,0.11-5.75c1.04-1.33,2.13-1.55,3.26-0.66l2.87,2.65c34.16,30.49,66.73,58.12,97.69,82.89
	c0.5-0.01,1.01,0.19,1.54,0.6c0.98,0.77,1.64,1.92,1.96,3.45c0.33,1.53,0.1,2.79-0.68,3.79
	C172.13,199.27,171.16,199.65,170.07,199.33z"/>
<path class="st1" d="M194.49,184.52c-4.58-1.32-8.61-4.09-12.1-8.31c-5.56-6.74-9.71-14.3-12.45-22.68
	c-2.74-8.38-3.66-16.42-2.77-24.13c0.67-7.65,3.61-13.62,8.83-17.92c7.49-6.18,15.52-4.09,24.07,6.27
	c4.28,5.18,7.71,11.25,10.3,18.2c2.59,6.95,4.14,13.76,4.65,20.44c0.51,6.67-0.06,12.25-1.71,16.72c-1.28,3.42-3.14,6.14-5.59,8.16
	C203.48,184.75,199.08,185.84,194.49,184.52z M208.12,162.45c-0.17-6.59-1.63-13.71-4.4-21.39c-2.69-7.74-5.74-13.68-9.17-17.83
	c-3.54-4.29-6.03-6.72-7.45-7.29c-1.4-0.71-2.66-0.98-3.76-0.82s-2.42,0.88-3.97,2.16c-1.71,1.41-3.01,3.48-3.91,6.21
	c-1.97,5.24-2.18,11.63-0.61,19.17c2.16,11.41,6.3,20.82,12.41,28.22c4.16,5.04,8.62,7.2,13.38,6.51c1.57-0.42,2.88-1.07,3.94-1.95
	C207.1,173.37,208.28,169.03,208.12,162.45z"/>
<path class="st1" d="M241.08,159.63c-2.45-1.08-4.15-3.03-5.13-5.84c-0.85-2.45-1.48-4.75-1.89-6.89
	c-0.41-2.14-0.97-5.53-1.68-10.16c-1.33-8.99-2.62-19.31-3.88-30.97l-2.06-18.49c-4.36-40.25-6.56-61.39-6.59-63.41
	c-0.01-1.62,0.84-2.73,2.54-3.32c2.1-0.73,3.5-0.05,4.23,2.04l0.63,3.75c0.51,3.08,0.9,5.96,1.17,8.66
	c0.27,2.7,0.83,7.87,1.69,15.49c1.27,12.36,2.96,28.24,5.05,47.63c2.09,19.39,3.63,32.27,4.61,38.64c0.97,6.98,1.74,11.29,2.3,12.92
	c0.47,1.36,1.35,2.43,2.62,3.21c1.28,0.78,2.56,0.94,3.86,0.49c1.4-0.48,2.63-1.19,3.71-2.12c1.07-0.93,1.78-1.56,2.12-1.88
	l2.12-2.11c0.67-0.64,1.11-0.99,1.31-1.06c2.19-0.76,3.64-0.14,4.33,1.85c0.69,2-0.16,4.05-2.56,6.15c-2.4,2.1-5.54,3.83-9.44,5.18
	C246.54,160.63,243.52,160.71,241.08,159.63z"/>
<path class="st1" d="M280.68,152.51c-2.22-1.49-3.56-3.71-4.04-6.64c-0.41-2.56-0.63-4.93-0.66-7.11c-0.03-2.18,0.01-5.62,0.11-10.3
	c0.25-9.08,0.78-19.47,1.57-31.17l1.19-18.57c2.71-40.4,4.23-61.59,4.55-63.59c0.28-1.6,1.3-2.54,3.08-2.83
	c2.19-0.35,3.46,0.56,3.81,2.74l-0.03,3.8c-0.04,3.12-0.16,6.03-0.36,8.74c-0.21,2.71-0.55,7.89-1.03,15.55
	c-0.9,12.4-2.01,28.32-3.32,47.79c-1.32,19.46-2.04,32.41-2.19,38.85c-0.26,7.04-0.25,11.42,0.02,13.12
	c0.23,1.42,0.9,2.63,2.02,3.61c1.12,0.99,2.36,1.37,3.71,1.15c1.46-0.23,2.8-0.72,4.02-1.45c1.22-0.73,2.02-1.22,2.41-1.48
	l2.45-1.71c0.77-0.51,1.26-0.79,1.47-0.82c2.29-0.37,3.61,0.49,3.94,2.58c0.33,2.09-0.86,3.96-3.59,5.61
	c-2.73,1.65-6.13,2.81-10.19,3.46C285.88,154.45,282.9,154,280.68,152.51z"/>
<path class="st2" d="M313.46,199.03c-2.6-1.61-4.6-3.63-6-6.06c-1.4-2.43-2.11-4.85-2.13-7.25c-0.06-5.86,1.63-11.1,5.07-15.75
	c2.5-3.39,6.69-7.03,12.56-10.93c5.35-3.7,8.5-5.75,9.44-6.14l13.69-9.35c0.3-1.35,1.89-11.31,5.38-21.9l2.3-1.94
	c0.71-2.41,1.43-4.62,2.15-6.65c0.72-2.02,1.23-3.71,1.53-5.06c-4.42,12.05-9.77,21.27-16.04,27.67c-4.18,4.46-8.28,6.71-12.29,6.75
	c-4.01,0.04-7.28-1.39-9.78-4.29c-2.51-2.9-3.79-6.9-3.84-11.99c-0.08-8.06,2.33-20.81,7.22-38.23c2.45-8.66,3.64-16.5,3.95-16.89
	c1.46-1.84,3.19-2.77,5.2-2.79c2-0.02,3.02,0.93,3.04,2.85c0.02,1.92-1.86,10.01-5.62,24.25c-3.77,14.25-5.62,23.91-5.57,29
	c0.05,4.99,0.77,8.11,2.15,9.34c1.28,1.24,2.87,1.84,4.77,1.82c4.01-0.04,8.26-3.16,12.74-9.34c3.54-4.84,6.67-11.32,9.39-19.46
	c2.72-8.14,5.24-16.73,7.58-25.78l0.76-2.89c1.12-4.33,2.09-7.03,2.93-8.09c0.83-1.16,2.09-1.75,3.78-1.77
	c1.69-0.02,2.54,0.55,2.55,1.7c0.01,1.35-2.16,11.16-6.52,29.44c-4.26,17.04-7.31,29.74-9.12,38.11c2.09-1.65,3.93-3.21,5.5-4.66
	c2.09-1.94,3.64-3.3,4.63-4.08c0.99-0.78,1.91-1.17,2.76-1.18c2-0.02,3.02,0.79,3.03,2.42c0.01,0.86-0.4,1.83-1.24,2.89
	c-5.66,4.66-11.11,8.85-16.35,12.55c-2.41,12.7-4.68,22.78-6.83,30.24c-2.14,7.46-5.12,13.61-8.92,18.45
	c-3.81,4.84-8.77,7.29-14.9,7.35C319.05,201.42,316.06,200.63,313.46,199.03z M338.79,174l3.52-12.71l1.97-9.38
	c-4.09,2.92-8.08,5.6-11.96,8.04c-3.88,2.44-7.06,4.63-9.52,6.58c-2.46,1.94-4.66,4.41-6.58,7.41c-1.93,2.99-2.87,6.41-2.83,10.25
	c0.04,3.94,1.49,6.95,4.37,9.03c1.06,0.85,2.65,1.27,4.77,1.25C328.96,194.41,334.39,187.58,338.79,174z"/>
</svg>
