<?xml version="1.0" encoding="utf-8"?>
<!-- Generator: Adobe Illustrator 26.5.0, SVG Export Plug-In . SVG Version: 6.00 Build 0)  -->
<svg version="1.1" id="Layer_1" xmlns="http://www.w3.org/2000/svg" xmlns:xlink="http://www.w3.org/1999/xlink" x="0px" y="0px"
	 viewBox="0 0 480.67 364.44" style="enable-background:new 0 0 480.67 364.44;" xml:space="preserve">
<style type="text/css">
	.st0{stroke:#000000;stroke-width:5;stroke-miterlimit:10;}
	.st1{stroke:#000000;stroke-width:2;stroke-miterlimit:10;}
</style>
<g>
	<path class="st0" d="M134.65,353.49c-6.26-4.3-10.97-9.99-14.12-17.08c-3.16-7.08-4.47-14.84-3.94-23.25
		c0.35-5.53,1.86-10.63,4.52-15.29c2.66-4.66,5.53-8.26,8.61-10.81c4.17-3.52,9.28-6.17,15.33-7.96
		c-6.58-5.97-9.64-12.69-9.16-20.15c0.15-2.32,0.98-4.65,2.5-6.97c1.52-2.32,3.49-4.21,5.9-5.66c4.57-3.01,10.45-4.29,17.64-3.83
		c6.84,0.43,12.59,1.97,17.24,4.6c4.65,2.63,7.83,5.93,9.55,9.9c-0.01,1.53-0.4,2.59-1.17,3.19c-0.77,0.6-1.62,0.86-2.56,0.8
		c-0.94-0.06-1.67-0.75-2.19-2.07c-0.93-2.96-3.2-5.41-6.81-7.38c-3.61-1.96-7.99-3.1-13.12-3.43c-5.48-0.35-10.35,0.57-14.61,2.76
		c-4.26,2.19-6.52,5.32-6.78,9.41c-0.35,5.53,1.76,10.22,6.33,14.05c1.62,1.47,3.65,2.69,6.08,3.65c3.59,0.23,6.35,0.85,8.26,1.85
		c1.91,1.01,2.82,2.27,2.72,3.8c-0.06,0.88-0.49,1.6-1.3,2.15c-0.81,0.55-1.77,0.79-2.88,0.72c-5.16-1.29-8.32-2.26-9.48-2.9
		c-4.82,0.18-9.36,1.6-13.61,4.27c-4.25,2.67-7.72,6.21-10.41,10.63c-2.69,4.42-4.19,9.23-4.53,14.45
		c-0.47,7.46,0.64,14.31,3.34,20.56c2.7,6.25,6.67,11.27,11.93,15.07c5.26,3.8,11.31,5.91,18.16,6.35
		c8.13,0.52,15.29-0.64,21.49-3.47c6.19-2.83,11.01-6.59,14.44-11.28c3.43-4.69,5.3-9.4,5.6-14.14c0.33-5.13-0.46-9.37-2.35-12.71
		c-1.9-3.34-5.13-6.24-9.69-8.71c-5.18,1.77-9.24,4.45-12.18,8.04c-2.94,3.6-4.54,7.48-4.8,11.65c-0.07,1.12,0.02,2.08,0.27,2.86
		c0.25,0.78,0.64,1.71,1.17,2.79c0.6,1.33,0.89,2.23,0.86,2.71c-0.05,0.8-0.46,1.52-1.23,2.16c-0.77,0.64-1.58,0.93-2.44,0.87
		c-1.63-0.1-2.87-1.51-3.73-4.22c-0.71-2.3-1-4.53-0.86-6.7c0.29-4.57,2.14-8.98,5.54-13.23c3.41-4.25,7.69-7.82,12.86-10.72
		c1.52-0.95,6-2.44,13.43-4.46l4.46-1.29c7.46-2.5,11.37-6.56,11.73-12.18l-0.54-9.82c0.3-0.71,0.84-1.34,1.6-1.89
		c0.76-0.56,1.45-0.81,2.05-0.78c2.31,0.15,3.18,4.71,2.61,13.69c-0.09,1.44-0.67,3.12-1.74,5.02c-1.07,1.91-2.56,3.72-4.47,5.45
		c-4.62,3.81-10.64,6.49-18.04,8.03c5.05,3.06,8.29,6.46,9.73,10.22c1.44,3.76,1.99,8.28,1.65,13.57
		c-0.39,6.18-2.95,12.03-7.69,17.57c-4.73,5.54-10.81,9.84-18.22,12.91c-7.32,3-14.36,4.28-21.12,3.85
		C148.19,360.2,140.91,357.79,134.65,353.49z"/>
</g>
<path class="st1" d="M366.53,356.13c-17.18-0.33-33.9-3.97-50.16-10.95c-16.26-6.97-29.49-17.99-42.48-31.19
	c-9.33-9.4-15.53-21.02-23.3-34.52c-1.68-2.91-1-4.46,1.25-5.37c0.4-0.16,2.68-0.35,5.4-0.73c2.8-0.39,3.92-0.71,5.91-1.51
	c5.04-2.03,9.65-5.17,13.82-9.42c4.17-4.25,7.24-8.92,9.21-14.02c3.92-10.79,2.95-21.28-2.92-31.48
	c-3.02-5.25-6.98-9.57-11.88-12.98c-4.9-3.41-10.27-5.5-16.1-6.26c-5.83-0.76-11.53-0.02-17.1,2.22c-6.5,2.62-11.45,5.09-14.85,7.41
	l39,146.15c0.16,1.97-1.23,3.54-4.15,4.72c-3.05,1.23-5.02,1.07-5.92-0.49c-2.91-11.03-8.69-33.13-17.33-66.32
	c-8.64-33.18-15.12-58.78-19.43-76.78c-1.84,1.34-3.21,2.67-4.09,3.98c-0.88,1.31-1.71,2.84-2.5,4.6c-0.5,1.4-1.09,2.5-1.77,3.31
	c-0.68,0.81-1.71,1.44-3.09,1.87c-2.06,0.11-3.48-0.51-4.26-1.87c-1.51-2.62-0.86-5.9,1.94-9.84c2.8-3.94,7.11-7.8,12.94-11.58
	c-0.25-2.41-0.06-4.37,0.54-5.87c0.61-1.5,1.44-2.46,2.5-2.89c0.4-0.16,0.91-0.12,1.53,0.1c0.62,0.23,1.1,0.63,1.43,1.22
	c0.5,0.87,0.7,1.93,0.6,3.17c2.75-1.46,5.65-2.81,8.7-4.04c12.87-5.18,24.8-6.3,35.8-3.37c11,2.93,19.68,9.93,26.06,21.01
	c4.86,8.45,6.93,16.95,6.21,25.49c-0.72,8.54-4.37,16.47-10.94,23.78c-6.58,7.31-15.77,13.34-27.57,18.09
	c10.45,18.16,23.85,33.08,40.2,44.74c16.35,11.66,34.5,18.8,54.47,21.41c19.96,2.61,40.22-0.22,60.79-8.49
	c9.28-3.74,17.04-8.08,23.25-13.04c6.22-4.95,11.24-9.99,15.07-15.12c3.83-5.13,8.38-12.05,13.67-20.75c0.14-0.89,0.67-1.53,1.6-1.9
	c0.93-0.37,1.97-0.34,3.12,0.09c1.15,0.44,1.97,1.09,2.48,1.96c0.56,0.97,0.57,1.98,0.03,3.04c-6.11,12.39-13.56,22.86-22.35,31.42
	c-8.8,8.56-20.76,15.89-35.88,21.97C400.19,353.45,383.71,356.46,366.53,356.13z"/>
<path class="st1" d="M337.43,326.76c-4.1-1.02-7.9-3.23-11.41-6.61c-4.55-4.43-8.43-10.82-11.64-19.14
	c-3.21-8.32-5.26-17.41-6.13-27.26c-0.87-9.85-0.22-19.12,1.95-27.81c4.35-17.38,12.81-24.5,25.37-21.36
	c8.74,2.19,15.71,7.69,20.9,16.51c5.5,8.77,9,18.98,10.51,30.63c1.51,11.66,0.85,23.14-1.98,34.43c-1.77,7.08-5.03,12.72-9.79,16.94
	C350.46,327.31,344.53,328.53,337.43,326.76z M337.89,317.97c1.78,0.44,3.73,0.47,5.86,0.08c6.13-1.89,10.26-7.06,12.37-15.51
	c3.11-12.41,2.69-26.11-1.26-41.08c-2.44-9.98-6.35-17.55-11.73-22.72c-2.64-2.77-5.4-4.52-8.27-5.23c-2.59-0.65-4.6-0.76-6.02-0.32
	c-1.42,0.44-2.77,1.48-4.05,3.14c-1.39,1.5-2.99,5.85-4.79,13.05c-1.74,6.95-2.01,15.86-0.81,26.71
	c1.07,10.82,3.39,20.24,6.97,28.26C329.75,312.37,333.66,316.91,337.89,317.97z"/>
<path class="st1" d="M409.8,310.06c-5.35-2.69-9.87-7.25-13.56-13.7c-2.73-4.77-5.12-9.64-7.14-14.6
	c-2.03-4.96-4.24-10.95-6.65-17.98l-1.75-4.75c-4.14-11.49-7.26-20.47-9.34-26.95c-0.58-1.58-1.07-3-1.46-4.25
	c-0.39-1.25-0.78-2.35-1.17-3.31c-1.89-5.85-3.38-10.61-4.32-14.34c-1.51-6.03-1.77-7.14-1.77-7.14s-1.3-4.26-2.49-9.97
	c-0.81-4.55-4.25-13.04-0.72-17.92c3.18-1.82,4.85,2.68,6.25,5.12l1.62,4.92c0,0,2.98,9.15,4.61,14.72
	c5.94,20.37,10.42,35.92,13.75,46.54c0.27-9.15,1.31-16.56,3.09-22.23c1.78-5.67,4.94-9.79,9.46-12.38
	c4.52-2.59,9.06-3.09,13.62-1.49c4.56,1.59,8.02,4.44,10.37,8.55c4.9,8.55,9.04,19.12,12.43,31.7c3.39,12.59,4.74,23.65,4.04,33.19
	c-0.83,12.72-5.1,21.28-12.79,25.68C420.51,312.56,415.15,312.75,409.8,310.06z M428.5,283.43c0.97-11.91-1.21-25.34-6.52-40.29
	c-1.81-4.57-3.79-8.74-5.95-12.52c-2.61-4.55-5.02-7.71-7.24-9.46c-2.22-1.75-4.55-1.93-7-0.53c-2.57,1.47-4.71,5.31-6.42,11.53
	c-1.71,6.22-2.49,13.15-2.33,20.8c0.16,7.65,1.4,14.21,3.71,19.66c3.4,7.93,6.35,14.06,8.83,18.39c5.41,9.44,10.55,12.76,15.44,9.96
	C425.43,298.46,427.92,292.61,428.5,283.43z"/>
<path class="st0" d="M170.07,199.33c-1.09-0.32-2.77-1.36-5.04-3.14l-4.88-3.82c-6.12-4.79-22.26-18.36-48.42-40.71
	c-5.99-4.96-11.84-9.87-17.54-14.73c-5.7-4.86-10.41-8.82-14.12-11.86c4.46,9.26,10.27,22.62,17.44,40.1
	c7.17,17.48,11.49,28.07,12.98,31.78c3.41,8.57,6.98,17.33,10.7,26.28c0.94,2.07,0.92,3.73-0.06,4.98
	c-0.91,1.17-2.09,1.58-3.54,1.25l-22.34-10.24c-36.69-16.51-59.61-26.94-68.77-31.29c7.27,8.78,14.1,17.3,20.48,25.58
	c6.38,8.28,14.23,18.61,23.55,31c3.55,4.66,7.85,10.3,12.9,16.93c5.05,6.63,11.04,14.4,17.96,23.31c0.8,2.1,0.64,3.85-0.47,5.27
	c-0.98,1.25-2.29,1.36-3.93,0.34c-6-6.97-13.21-15.83-21.62-26.58c-8.42-10.74-16.55-21.26-24.4-31.56
	c-7.85-10.3-13.11-17.16-15.78-20.6l-23.41-30.6c-0.56-0.84-0.83-1.82-0.81-2.94c0.02-1.12,0.3-2.01,0.82-2.68
	c0.84-1.08,2.07-1.32,3.68-0.74c6.7,2.97,23.47,10.59,50.3,22.88c17.28,8.29,31.99,15.05,44.13,20.25
	c-2.99-8.64-7.3-19.79-12.94-33.46c-5.64-13.67-13.38-32.2-23.23-55.6c-2.73-6.16-5.23-12.01-7.49-17.53
	c-1.03-2.42-1-4.33,0.11-5.75c1.04-1.33,2.13-1.55,3.26-0.66l2.87,2.65c34.16,30.49,66.73,58.12,97.69,82.89
	c0.5-0.01,1.01,0.19,1.54,0.6c0.98,0.77,1.64,1.92,1.96,3.45c0.33,1.53,0.1,2.79-0.68,3.79
	C172.13,199.27,171.16,199.65,170.07,199.33z"/>
<path class="st0" d="M194.49,184.52c-4.58-1.32-8.61-4.09-12.1-8.31c-5.56-6.74-9.71-14.3-12.45-22.68
	c-2.74-8.38-3.66-16.42-2.77-24.13c0.67-7.65,3.61-13.62,8.83-17.92c7.49-6.18,15.52-4.09,24.07,6.27
	c4.28,5.18,7.71,11.25,10.3,18.2c2.59,6.95,4.14,13.76,4.65,20.44c0.51,6.67-0.06,12.25-1.71,16.72c-1.28,3.42-3.14,6.14-5.59,8.16
	C203.48,184.75,199.08,185.84,194.49,184.52z M208.12,162.45c-0.17-6.59-1.63-13.71-4.4-21.39c-2.69-7.74-5.74-13.68-9.17-17.83
	c-3.54-4.29-6.03-6.72-7.45-7.29c-1.4-0.71-2.66-0.98-3.76-0.82s-2.42,0.88-3.97,2.16c-1.71,1.41-3.01,3.48-3.91,6.21
	c-1.97,5.24-2.18,11.63-0.61,19.17c2.16,11.41,6.3,20.82,12.41,28.22c4.16,5.04,8.62,7.2,13.38,6.51c1.57-0.42,2.88-1.07,3.94-1.95
	C207.1,173.37,208.28,169.03,208.12,162.45z"/>
<path class="st0" d="M241.08,159.63c-2.45-1.08-4.15-3.03-5.13-5.84c-0.85-2.45-1.48-4.75-1.89-6.89
	c-0.41-2.14-0.97-5.53-1.68-10.16c-1.33-8.99-2.62-19.31-3.88-30.97l-2.06-18.49c-4.36-40.25-6.56-61.39-6.59-63.41
	c-0.01-1.62,0.84-2.73,2.54-3.32c2.1-0.73,3.5-0.05,4.23,2.04l0.63,3.75c0.51,3.08,0.9,5.96,1.17,8.66
	c0.27,2.7,0.83,7.87,1.69,15.49c1.27,12.36,2.96,28.24,5.05,47.63c2.09,19.39,3.63,32.27,4.61,38.64c0.97,6.98,1.74,11.29,2.3,12.92
	c0.47,1.36,1.35,2.43,2.62,3.21c1.28,0.78,2.56,0.94,3.86,0.49c1.4-0.48,2.63-1.19,3.71-2.12c1.07-0.93,1.78-1.56,2.12-1.88
	l2.12-2.11c0.67-0.64,1.11-0.99,1.31-1.06c2.19-0.76,3.64-0.14,4.33,1.85c0.69,2-0.16,4.05-2.56,6.15c-2.4,2.1-5.54,3.83-9.44,5.18
	C246.54,160.63,243.52,160.71,241.08,159.63z"/>
<path class="st0" d="M280.68,152.51c-2.22-1.49-3.56-3.71-4.04-6.64c-0.41-2.56-0.63-4.93-0.66-7.11c-0.03-2.18,0.01-5.62,0.11-10.3
	c0.25-9.08,0.78-19.47,1.57-31.17l1.19-18.57c2.71-40.4,4.23-61.59,4.55-63.59c0.28-1.6,1.3-2.54,3.08-2.83
	c2.19-0.35,3.46,0.56,3.81,2.74l-0.03,3.8c-0.04,3.12-0.16,6.03-0.36,8.74c-0.21,2.71-0.55,7.89-1.03,15.55
	c-0.9,12.4-2.01,28.32-3.32,47.79c-1.32,19.46-2.04,32.41-2.19,38.85c-0.26,7.04-0.25,11.42,0.02,13.12
	c0.23,1.42,0.9,2.63,2.02,3.61c1.12,0.99,2.36,1.37,3.71,1.15c1.46-0.23,2.8-0.72,4.02-1.45c1.22-0.73,2.02-1.22,2.41-1.48
	l2.45-1.71c0.77-0.51,1.26-0.79,1.47-0.82c2.29-0.37,3.61,0.49,3.94,2.58c0.33,2.09-0.86,3.96-3.59,5.61
	c-2.73,1.65-6.13,2.81-10.19,3.46C285.88,154.45,282.9,154,280.68,152.51z"/>
<path class="st0" d="M308.61,196.96c-2.47-1.8-4.31-3.96-5.52-6.5c-1.21-2.53-1.73-5-1.58-7.39c0.38-5.84,2.47-10.95,6.25-15.32
	c2.75-3.19,7.2-6.5,13.35-9.94c5.62-3.29,8.91-5.09,9.88-5.41l14.36-8.29c0.4-1.32,2.74-11.13,7.02-21.43l2.44-1.76
	c0.89-2.34,1.78-4.5,2.65-6.46c0.87-1.96,1.51-3.6,1.91-4.93c-5.32,11.68-11.35,20.47-18.09,26.37c-4.5,4.13-8.76,6.06-12.76,5.8
	c-4.01-0.26-7.15-1.94-9.43-5.02c-2.29-3.08-3.26-7.16-2.92-12.24c0.53-8.05,3.89-20.57,10.09-37.58c3.1-8.45,4.67-13.02,4.71-13.69
	c-0.08-0.39-0.1-0.82-0.07-1.3c0.04-0.67,0.24-1.19,0.58-1.55c1.59-1.72,3.39-2.52,5.4-2.39c2,0.13,2.94,1.16,2.81,3.07
	c-0.13,1.92-2.61,9.84-7.44,23.75c-4.83,13.92-7.42,23.42-7.75,28.5c-0.33,4.98,0.15,8.14,1.44,9.48c1.18,1.33,2.72,2.06,4.62,2.18
	c4,0.26,8.47-2.52,13.41-8.35c3.9-4.55,7.51-10.78,10.83-18.7c3.32-7.91,6.5-16.29,9.51-25.13l0.98-2.82
	c1.44-4.23,2.62-6.85,3.53-7.85c0.92-1.09,2.22-1.59,3.91-1.47c1.68,0.11,2.49,0.74,2.42,1.89c-0.09,1.34-3,10.96-8.73,28.86
	c-5.54,16.66-9.54,29.1-11.98,37.31c2.21-1.49,4.16-2.9,5.83-4.23c2.23-1.78,3.88-3.01,4.93-3.72c1.05-0.7,2-1.02,2.84-0.97
	c2,0.13,2.95,1.01,2.84,2.64c-0.06,0.86-0.54,1.79-1.45,2.79c-5.99,4.22-11.75,7.98-17.25,11.27c-3.36,12.48-6.39,22.36-9.1,29.63
	c-2.7,7.28-6.13,13.18-10.29,17.72c-4.16,4.54-9.3,6.6-15.41,6.2C314.01,199.77,311.08,198.76,308.61,196.96z M335.76,173.93
	l4.47-12.41l2.67-9.2c-4.3,2.6-8.48,4.97-12.53,7.11c-4.06,2.14-7.39,4.08-9.99,5.84c-2.6,1.75-4.98,4.05-7.12,6.89
	c-2.15,2.84-3.34,6.18-3.6,10.01c-0.26,3.93,0.96,7.04,3.67,9.33c1,0.93,2.55,1.47,4.66,1.61
	C324.42,193.53,330.34,187.13,335.76,173.93z"/>
</svg>
